<svg width="110" height="30" viewBox="0 0 110 30" fill="none" xmlns="http://www.w3.org/2000/svg">
<path d="M7.32 23.72H16.28V29H0.48V0.919999H7.32V23.72ZM32.8225 29.28C30.1825 29.28 27.7558 28.6667 25.5425 27.44C23.3558 26.2133 21.6092 24.5067 20.3025 22.32C19.0225 20.1067 18.3825 17.6267 18.3825 14.88C18.3825 12.1333 19.0225 9.66667 20.3025 7.48C21.6092 5.29333 23.3558 3.58667 25.5425 2.36C27.7558 1.13333 30.1825 0.52 32.8225 0.52C35.4625 0.52 37.8758 1.13333 40.0625 2.36C42.2758 3.58667 44.0092 5.29333 45.2625 7.48C46.5425 9.66667 47.1825 12.1333 47.1825 14.88C47.1825 17.6267 46.5425 20.1067 45.2625 22.32C43.9825 24.5067 42.2492 26.2133 40.0625 27.44C37.8758 28.6667 35.4625 29.28 32.8225 29.28ZM32.8225 23.04C35.0625 23.04 36.8492 22.2933 38.1825 20.8C39.5425 19.3067 40.2225 17.3333 40.2225 14.88C40.2225 12.4 39.5425 10.4267 38.1825 8.96C36.8492 7.46666 35.0625 6.72 32.8225 6.72C30.5558 6.72 28.7425 7.45333 27.3825 8.92C26.0492 10.3867 25.3825 12.3733 25.3825 14.88C25.3825 17.36 26.0492 19.3467 27.3825 20.84C28.7425 22.3067 30.5558 23.04 32.8225 23.04ZM69.6278 9.8C69.1211 8.86667 68.3878 8.16 67.4278 7.68C66.4945 7.17333 65.3878 6.92 64.1078 6.92C61.8945 6.92 60.1211 7.65333 58.7878 9.12C57.4545 10.56 56.7878 12.4933 56.7878 14.92C56.7878 17.5067 57.4811 19.5333 58.8678 21C60.2811 22.44 62.2145 23.16 64.6678 23.16C66.3478 23.16 67.7611 22.7333 68.9078 21.88C70.0811 21.0267 70.9345 19.8 71.4678 18.2H62.7878V13.16H77.6678V19.52C77.1611 21.2267 76.2945 22.8133 75.0678 24.28C73.8678 25.7467 72.3345 26.9333 70.4678 27.84C68.6011 28.7467 66.4945 29.2 64.1478 29.2C61.3745 29.2 58.8945 28.6 56.7078 27.4C54.5478 26.1733 52.8545 24.48 51.6278 22.32C50.4278 20.16 49.8278 17.6933 49.8278 14.92C49.8278 12.1467 50.4278 9.68 51.6278 7.52C52.8545 5.33333 54.5478 3.64 56.7078 2.44C58.8678 1.21333 61.3345 0.599998 64.1078 0.599998C67.4678 0.599998 70.2945 1.41333 72.5878 3.04C74.9078 4.66667 76.4411 6.92 77.1878 9.8H69.6278ZM94.7366 29.28C92.0966 29.28 89.6699 28.6667 87.4566 27.44C85.2699 26.2133 83.5232 24.5067 82.2166 22.32C80.9366 20.1067 80.2966 17.6267 80.2966 14.88C80.2966 12.1333 80.9366 9.66667 82.2166 7.48C83.5232 5.29333 85.2699 3.58667 87.4566 2.36C89.6699 1.13333 92.0966 0.52 94.7366 0.52C97.3766 0.52 99.7899 1.13333 101.977 2.36C104.19 3.58667 105.923 5.29333 107.177 7.48C108.457 9.66667 109.097 12.1333 109.097 14.88C109.097 17.6267 108.457 20.1067 107.177 22.32C105.897 24.5067 104.163 26.2133 101.977 27.44C99.7899 28.6667 97.3766 29.28 94.7366 29.28ZM94.7366 23.04C96.9766 23.04 98.7632 22.2933 100.097 20.8C101.457 19.3067 102.137 17.3333 102.137 14.88C102.137 12.4 101.457 10.4267 100.097 8.96C98.7632 7.46666 96.9766 6.72 94.7366 6.72C92.4699 6.72 90.6566 7.45333 89.2966 8.92C87.9632 10.3867 87.2966 12.3733 87.2966 14.88C87.2966 17.36 87.9632 19.3467 89.2966 20.84C90.6566 22.3067 92.4699 23.04 94.7366 23.04Z" fill="#F2F2F2"/>
</svg>
