<svg width="969" height="811" viewBox="0 0 969 811" fill="none" xmlns="http://www.w3.org/2000/svg">
<g clip-path="url(#clip0)">
<path d="M-19 605.5L877.761 584L966.5 790.5L969 812H-19V605.5Z" fill="url(#paint0_linear)"/>
<path d="M124.282 691.63C186.765 659.243 315.931 604.911 478.971 604.911C642.011 604.911 779.093 649.174 841 686.5C909 727.5 941.5 769 969 810.5C969 810.5 969 591.391 928.407 495.192C878.389 376.657 794.503 275.515 687.257 204.435C580.01 133.355 454.172 95.498 325.504 95.6054C279.739 95.4804 229.077 100.139 190 113C150.5 126 110 138.419 61.5 172.5C-12.5 224.5 -18.5125 258 -18.5125 258V483.192V810.5C11 760.5 95.6119 706.325 124.282 691.63Z" fill="url(#paint1_radial)"/>
<path d="M586.075 187.567C526.971 175.506 482.858 155.348 485.648 141.676C487.321 133.48 505.219 129.514 534.751 130.797C534.857 130.801 534.961 130.826 535.057 130.87C535.153 130.914 535.24 130.977 535.311 131.055C535.383 131.133 535.439 131.224 535.475 131.323C535.511 131.422 535.528 131.528 535.523 131.634C535.519 131.739 535.493 131.843 535.448 131.939C535.403 132.035 535.34 132.121 535.262 132.192C535.184 132.263 535.092 132.319 534.993 132.354C534.893 132.39 534.787 132.406 534.682 132.401C506.862 131.192 488.676 134.87 487.222 141.997C484.699 154.361 530.115 174.509 586.396 185.994C642.677 197.48 692.357 196.738 694.88 184.374C696.34 177.217 680.946 166.669 654.704 156.847C654.605 156.811 654.515 156.755 654.437 156.683C654.36 156.611 654.297 156.524 654.254 156.428C654.21 156.332 654.185 156.229 654.181 156.123C654.178 156.017 654.195 155.912 654.232 155.813C654.269 155.714 654.325 155.624 654.397 155.547C654.469 155.469 654.556 155.407 654.652 155.364C654.748 155.32 654.852 155.296 654.958 155.292C655.063 155.289 655.169 155.306 655.267 155.344C683.121 165.768 698.132 176.467 696.453 184.695C693.663 198.367 645.179 199.629 586.075 187.567Z" fill="#3F3D56"/>
<path d="M532.847 181.488C536.326 191.736 542.436 200.89 550.564 208.036C558.693 215.181 568.555 220.067 579.165 222.204C589.775 224.341 600.76 223.655 611.021 220.214C621.282 216.774 630.459 210.699 637.635 202.597C602.345 197.486 567.363 190.439 532.847 181.488V181.488Z" fill="#FFCB3E"/>
<path d="M646.864 186.965C651.286 178.453 653.666 169.029 653.815 159.438C653.965 149.847 651.88 140.353 647.725 131.707C643.57 123.061 637.46 115.5 629.878 109.624C622.296 103.747 613.45 99.7154 604.041 97.8481C594.631 95.9807 584.916 96.3289 575.665 98.865C566.413 101.401 557.879 106.056 550.738 112.46C543.596 118.864 538.044 126.843 534.52 135.764C530.996 144.685 529.596 154.304 530.433 163.86C568.081 176.564 607.218 184.33 646.864 186.965V186.965Z" fill="#FFCB3E"/>
<path d="M611.631 134.614C615.541 135.412 619.357 132.889 620.155 128.98C620.952 125.07 618.429 121.255 614.519 120.457C610.609 119.66 606.793 122.182 605.996 126.092C605.199 130.001 607.722 133.817 611.631 134.614Z" fill="#F2F2F2" fill-opacity="0.48"/>
<path d="M567.759 160.891C574.276 162.22 580.636 158.015 581.965 151.5C583.294 144.984 579.089 138.624 572.572 137.295C566.056 135.966 559.696 140.17 558.367 146.686C557.038 153.202 561.243 159.561 567.759 160.891Z" fill="#F2F2F2" fill-opacity="0.48"/>
<path d="M580.146 216.67C584.056 217.467 587.872 214.945 588.67 211.035C589.467 207.126 586.944 203.31 583.034 202.513C579.124 201.715 575.308 204.238 574.511 208.147C573.713 212.057 576.236 215.872 580.146 216.67Z" fill="#F2F2F2" fill-opacity="0.48"/>
<path d="M52.1831 412.813C57.0792 412.813 61.0482 408.844 61.0482 403.949C61.0482 399.053 57.0792 395.085 52.1831 395.085C47.2871 395.085 43.3181 399.053 43.3181 403.949C43.3181 408.844 47.2871 412.813 52.1831 412.813Z" fill="white"/>
<path d="M716.865 326.728C721.761 326.728 725.73 322.76 725.73 317.864C725.73 312.969 721.761 309 716.865 309C711.969 309 708 312.969 708 317.864C708 322.76 711.969 326.728 716.865 326.728Z" fill="white"/>
<path d="M672.736 541.975C677.632 541.975 681.601 538.006 681.601 533.111C681.601 528.215 677.632 524.247 672.736 524.247C667.84 524.247 663.871 528.215 663.871 533.111C663.871 538.006 667.84 541.975 672.736 541.975Z" fill="white"/>
<path d="M929.001 715C932.867 715 936.002 711.866 936.002 708C936.002 704.134 932.867 701 929.001 701C925.134 701 922 704.134 922 708C922 711.866 925.134 715 929.001 715Z" fill="white"/>
<path d="M123.737 559.703H119.304V555.271C119.304 553.76 118.704 552.31 117.635 551.242C116.566 550.173 115.117 549.573 113.605 549.573C112.094 549.573 110.644 550.173 109.575 551.242C108.507 552.31 107.906 553.76 107.906 555.271V559.703H103.474C101.962 559.703 100.513 560.303 99.444 561.372C98.3752 562.441 97.7748 563.89 97.7748 565.401C97.7748 566.913 98.3752 568.362 99.444 569.431C100.513 570.5 101.962 571.1 103.474 571.1H107.906V575.532C107.906 577.043 108.507 578.493 109.575 579.561C110.644 580.63 112.094 581.23 113.605 581.23C115.117 581.23 116.566 580.63 117.635 579.561C118.704 578.493 119.304 577.043 119.304 575.532V571.1H123.737C125.248 571.1 126.698 570.5 127.766 569.431C128.835 568.362 129.436 566.913 129.436 565.401C129.436 563.89 128.835 562.441 127.766 561.372C126.698 560.303 125.248 559.703 123.737 559.703Z" fill="white"/>
<path d="M776.152 451.004H773.848V448.7C773.848 447.914 773.535 447.16 772.98 446.604C772.424 446.049 771.67 445.736 770.884 445.736C770.098 445.736 769.344 446.049 768.789 446.604C768.233 447.16 767.921 447.914 767.921 448.7V451.004H765.616C764.83 451.004 764.076 451.316 763.52 451.872C762.965 452.428 762.652 453.182 762.652 453.967C762.652 454.753 762.965 455.507 763.52 456.063C764.076 456.618 764.83 456.931 765.616 456.931H767.921V459.235C767.921 460.021 768.233 460.775 768.789 461.33C769.344 461.886 770.098 462.198 770.884 462.198C771.67 462.198 772.424 461.886 772.98 461.33C773.535 460.775 773.848 460.021 773.848 459.235V456.931H776.152C776.938 456.931 777.692 456.618 778.248 456.063C778.804 455.507 779.116 454.753 779.116 453.967C779.116 453.182 778.804 452.428 778.248 451.872C777.692 451.316 776.938 451.004 776.152 451.004V451.004Z" fill="#FB836F"/>
<path d="M911.5 538.268H909.195V535.963C909.195 535.177 908.883 534.424 908.327 533.868C907.771 533.312 907.018 533 906.232 533C905.446 533 904.692 533.312 904.136 533.868C903.581 534.424 903.268 535.177 903.268 535.963V538.268H900.963C900.178 538.268 899.424 538.58 898.868 539.136C898.312 539.691 898 540.445 898 541.231C898 542.017 898.312 542.77 898.868 543.326C899.424 543.882 900.178 544.194 900.963 544.194H903.268V546.499C903.268 547.285 903.581 548.038 904.136 548.594C904.692 549.15 905.446 549.462 906.232 549.462C907.018 549.462 907.771 549.15 908.327 548.594C908.883 548.038 909.195 547.285 909.195 546.499V544.194H911.5C912.286 544.194 913.04 543.882 913.596 543.326C914.151 542.77 914.464 542.017 914.464 541.231C914.464 540.445 914.151 539.691 913.596 539.136C913.04 538.58 912.286 538.268 911.5 538.268V538.268Z" fill="#FFCB3E"/>
<path d="M103.676 297.782H101.371V295.478C101.371 295.089 101.295 294.703 101.146 294.344C100.997 293.984 100.779 293.658 100.503 293.382C100.228 293.107 99.9016 292.889 99.542 292.74C99.1825 292.591 98.7971 292.515 98.408 292.515C98.0188 292.515 97.6334 292.591 97.2739 292.74C96.9144 292.889 96.5877 293.107 96.3125 293.382C96.0373 293.658 95.819 293.984 95.6701 294.344C95.5212 294.703 95.4445 295.089 95.4445 295.478V297.782H93.1396C92.3536 297.782 91.5999 298.095 91.0441 298.65C90.4884 299.206 90.1761 299.96 90.1761 300.745C90.1761 301.531 90.4884 302.285 91.0441 302.841C91.5999 303.396 92.3536 303.709 93.1396 303.709H95.4445V306.013C95.4445 306.402 95.5212 306.788 95.6701 307.147C95.819 307.507 96.0373 307.833 96.3125 308.109C96.5877 308.384 96.9144 308.602 97.2739 308.751C97.6334 308.9 98.0188 308.976 98.408 308.976C98.7971 308.976 99.1825 308.9 99.542 308.751C99.9016 308.602 100.228 308.384 100.503 308.109C100.779 307.833 100.997 307.507 101.146 307.147C101.295 306.788 101.371 306.402 101.371 306.013V303.709H103.676C104.462 303.709 105.216 303.396 105.772 302.841C106.328 302.285 106.64 301.531 106.64 300.745C106.64 299.96 106.328 299.206 105.772 298.65C105.216 298.095 104.462 297.782 103.676 297.782V297.782Z" fill="#FFCB3E"/>
<path d="M315.5 141.268H313.195V138.963C313.195 138.177 312.883 137.424 312.327 136.868C311.772 136.312 311.018 136 310.232 136C309.446 136 308.692 136.312 308.136 136.868C307.581 137.424 307.268 138.177 307.268 138.963V141.268H304.963C304.177 141.268 303.424 141.58 302.868 142.136C302.312 142.691 302 143.445 302 144.231C302 145.017 302.312 145.771 302.868 146.326C303.424 146.882 304.177 147.194 304.963 147.194H307.268V149.499C307.268 150.285 307.581 151.038 308.136 151.594C308.692 152.15 309.446 152.462 310.232 152.462C311.018 152.462 311.772 152.15 312.327 151.594C312.883 151.038 313.195 150.285 313.195 149.499V147.194H315.5C316.286 147.194 317.04 146.882 317.596 146.326C318.151 145.771 318.464 145.017 318.464 144.231C318.464 143.445 318.151 142.691 317.596 142.136C317.04 141.58 316.286 141.268 315.5 141.268V141.268Z" fill="white"/>
<path d="M863.537 601.694H861.232V599.389C861.232 598.603 860.919 597.849 860.364 597.294C859.808 596.738 859.054 596.426 858.268 596.426C857.482 596.426 856.729 596.738 856.173 597.294C855.617 597.849 855.305 598.603 855.305 599.389V601.694H853C852.214 601.694 851.46 602.006 850.904 602.561C850.349 603.117 850.036 603.871 850.036 604.657C850.036 605.443 850.349 606.196 850.904 606.752C851.46 607.308 852.214 607.62 853 607.62H855.305V609.924C855.305 610.71 855.617 611.464 856.173 612.02C856.729 612.575 857.482 612.888 858.268 612.888C859.054 612.888 859.808 612.575 860.364 612.02C860.919 611.464 861.232 610.71 861.232 609.924V607.62H863.537C864.322 607.62 865.076 607.308 865.632 606.752C866.188 606.196 866.5 605.443 866.5 604.657C866.5 603.871 866.188 603.117 865.632 602.561C865.076 602.006 864.322 601.694 863.537 601.694V601.694Z" fill="white"/>
<path d="M597.585 354.766H595.281V352.461C595.281 351.675 594.968 350.921 594.412 350.366C593.857 349.81 593.103 349.498 592.317 349.498C591.531 349.498 590.777 349.81 590.222 350.366C589.666 350.921 589.354 351.675 589.354 352.461V354.766H587.049C586.263 354.766 585.509 355.078 584.953 355.634C584.397 356.189 584.085 356.943 584.085 357.729C584.085 358.515 584.397 359.268 584.953 359.824C585.509 360.38 586.263 360.692 587.049 360.692H589.354V362.997C589.354 363.782 589.666 364.536 590.222 365.092C590.777 365.648 591.531 365.96 592.317 365.96C593.103 365.96 593.857 365.648 594.412 365.092C594.968 364.536 595.281 363.782 595.281 362.997V360.692H597.585C598.371 360.692 599.125 360.38 599.681 359.824C600.237 359.268 600.549 358.515 600.549 357.729C600.549 356.943 600.237 356.189 599.681 355.634C599.125 355.078 598.371 354.766 597.585 354.766V354.766Z" fill="white"/>
<path d="M191.06 418.081H188.755V415.776C188.755 414.99 188.443 414.236 187.887 413.681C187.332 413.125 186.578 412.813 185.792 412.813C185.006 412.813 184.252 413.125 183.696 413.681C183.141 414.236 182.828 414.99 182.828 415.776V418.081H180.524C179.738 418.081 178.984 418.393 178.428 418.948C177.872 419.504 177.56 420.258 177.56 421.044C177.56 421.83 177.872 422.583 178.428 423.139C178.984 423.695 179.738 424.007 180.524 424.007H182.828V426.311C182.828 427.097 183.141 427.851 183.696 428.407C184.252 428.962 185.006 429.275 185.792 429.275C186.578 429.275 187.332 428.962 187.887 428.407C188.443 427.851 188.755 427.097 188.755 426.311V424.007H191.06C191.846 424.007 192.6 423.695 193.156 423.139C193.711 422.583 194.024 421.83 194.024 421.044C194.024 420.258 193.711 419.504 193.156 418.948C192.6 418.393 191.846 418.081 191.06 418.081V418.081Z" fill="white"/>
<path d="M29.5002 585.268H27.1953V582.963C27.1953 582.177 26.883 581.424 26.3273 580.868C25.7715 580.312 25.0178 580 24.2318 580C23.4459 580 22.6921 580.312 22.1363 580.868C21.5806 581.424 21.2684 582.177 21.2684 582.963V585.268H18.9634C18.1775 585.268 17.4237 585.58 16.868 586.136C16.3122 586.691 16 587.445 16 588.231C16 589.017 16.3122 589.77 16.868 590.326C17.4237 590.882 18.1775 591.194 18.9634 591.194H21.2684V593.499C21.2684 594.285 21.5806 595.038 22.1363 595.594C22.6921 596.15 23.4459 596.462 24.2318 596.462C25.0178 596.462 25.7715 596.15 26.3273 595.594C26.883 595.038 27.1953 594.285 27.1953 593.499V591.194H29.5002C30.2861 591.194 31.0399 590.882 31.5957 590.326C32.1514 589.77 32.4636 589.017 32.4636 588.231C32.4636 587.445 32.1514 586.691 31.5957 586.136C31.0399 585.58 30.2861 585.268 29.5002 585.268V585.268Z" fill="#FB836F"/>
<path d="M139.5 189.268H137.195V186.963C137.195 186.177 136.883 185.424 136.327 184.868C135.772 184.312 135.018 184 134.232 184C133.446 184 132.692 184.312 132.136 184.868C131.581 185.424 131.268 186.177 131.268 186.963V189.268H128.963C128.177 189.268 127.424 189.58 126.868 190.136C126.312 190.691 126 191.445 126 192.231C126 193.017 126.312 193.77 126.868 194.326C127.424 194.882 128.177 195.194 128.963 195.194H131.268V197.499C131.268 198.285 131.581 199.038 132.136 199.594C132.692 200.15 133.446 200.462 134.232 200.462C135.018 200.462 135.772 200.15 136.327 199.594C136.883 199.038 137.195 198.285 137.195 197.499V195.194H139.5C140.286 195.194 141.04 194.882 141.596 194.326C142.151 193.77 142.464 193.017 142.464 192.231C142.464 191.445 142.151 190.691 141.596 190.136C141.04 189.58 140.286 189.268 139.5 189.268Z" fill="white"/>
</g>
<path d="M528.463 565.005V663.955H280.555C252.309 663.955 229.328 641.76 229.328 614.48C229.328 587.2 252.309 565.005 280.555 565.005H528.463Z" fill="#F2F2F2"/>
<path d="M534.553 663.194C534.552 664.203 534.151 665.171 533.437 665.885C532.724 666.599 531.756 667 530.747 667H276.139C262.311 667 249.049 661.507 239.271 651.729C229.493 641.951 224 628.689 224 614.861C224 601.032 229.493 587.771 239.271 577.993C249.049 568.215 262.311 562.721 276.139 562.721H530.747C531.756 562.721 532.724 563.122 533.438 563.836C534.152 564.55 534.553 565.518 534.553 566.527C534.553 567.536 534.152 568.505 533.438 569.218C532.724 569.932 531.756 570.333 530.747 570.333H276.139C264.33 570.333 253.004 575.024 244.653 583.375C236.303 591.725 231.612 603.051 231.612 614.861C231.612 626.67 236.303 637.996 244.653 646.347C253.004 654.697 264.33 659.388 276.139 659.388H530.747C531.756 659.389 532.724 659.79 533.437 660.504C534.151 661.217 534.552 662.185 534.553 663.194Z" fill="#FB836F"/>
<path d="M528.463 587.84H262.058C261.856 587.84 261.662 587.759 261.52 587.617C261.377 587.474 261.297 587.28 261.297 587.078C261.297 586.877 261.377 586.683 261.52 586.54C261.662 586.397 261.856 586.317 262.058 586.317H528.463C528.665 586.317 528.859 586.397 529.001 586.54C529.144 586.683 529.224 586.877 529.224 587.078C529.224 587.28 529.144 587.474 529.001 587.617C528.859 587.759 528.665 587.84 528.463 587.84Z" fill="#CCCCCC"/>
<path d="M528.463 606.107H262.058C261.856 606.107 261.662 606.027 261.52 605.884C261.377 605.742 261.297 605.548 261.297 605.346C261.297 605.144 261.377 604.951 261.52 604.808C261.662 604.665 261.856 604.585 262.058 604.585H528.463C528.665 604.585 528.859 604.665 529.001 604.808C529.144 604.951 529.224 605.144 529.224 605.346C529.224 605.548 529.144 605.742 529.001 605.884C528.859 606.027 528.665 606.107 528.463 606.107Z" fill="#CCCCCC"/>
<path d="M528.463 624.375H262.058C261.856 624.375 261.662 624.295 261.52 624.152C261.377 624.009 261.297 623.816 261.297 623.614C261.297 623.412 261.377 623.219 261.52 623.076C261.662 622.933 261.856 622.853 262.058 622.853H528.463C528.665 622.853 528.859 622.933 529.001 623.076C529.144 623.219 529.224 623.412 529.224 623.614C529.224 623.816 529.144 624.009 529.001 624.152C528.859 624.295 528.665 624.375 528.463 624.375Z" fill="#CCCCCC"/>
<path d="M528.463 642.643H262.058C261.856 642.643 261.662 642.563 261.52 642.42C261.377 642.277 261.297 642.084 261.297 641.882C261.297 641.68 261.377 641.486 261.52 641.344C261.662 641.201 261.856 641.121 262.058 641.121H528.463C528.665 641.121 528.859 641.201 529.001 641.344C529.144 641.486 529.224 641.68 529.224 641.882C529.224 642.084 529.144 642.277 529.001 642.42C528.859 642.563 528.665 642.643 528.463 642.643Z" fill="#CCCCCC"/>
<path d="M720.06 583.631L657.976 660.682L464.935 505.139C442.941 487.417 438.971 455.715 456.088 434.473C473.204 413.23 505.024 410.366 527.019 428.088L720.06 583.631Z" fill="#F2F2F2"/>
<path d="M663.195 663.91C662.562 664.695 661.642 665.197 660.639 665.305C659.635 665.413 658.63 665.118 657.844 664.485L459.586 504.739C448.819 496.063 441.938 483.465 440.459 469.716C438.98 455.967 443.024 442.194 451.7 431.426C460.376 420.658 472.974 413.778 486.723 412.299C500.472 410.82 514.245 414.864 525.013 423.54L723.271 583.286C723.66 583.599 723.984 583.986 724.224 584.425C724.464 584.864 724.615 585.345 724.668 585.842C724.722 586.339 724.677 586.842 724.536 587.322C724.396 587.802 724.162 588.249 723.848 588.638C723.534 589.028 723.147 589.351 722.708 589.591C722.269 589.831 721.788 589.981 721.291 590.035C720.793 590.088 720.291 590.043 719.811 589.902C719.331 589.761 718.884 589.527 718.495 589.213L520.237 429.467C515.684 425.795 510.453 423.057 504.841 421.407C499.229 419.758 493.348 419.231 487.532 419.855C481.717 420.48 476.081 422.244 470.948 425.047C465.814 427.85 461.283 431.636 457.613 436.191C453.943 440.745 451.207 445.978 449.56 451.59C447.913 457.203 447.388 463.085 448.015 468.9C448.641 474.715 450.408 480.35 453.213 485.482C456.018 490.615 459.806 495.144 464.362 498.812L662.62 658.558C663.405 659.192 663.907 660.111 664.015 661.115C664.123 662.118 663.828 663.124 663.195 663.91V663.91Z" fill="#FFCB3E"/>
<path d="M705.733 601.412L498.288 434.264C498.211 434.201 498.146 434.124 498.098 434.036C498.05 433.948 498.02 433.852 498.009 433.752C497.998 433.653 498.007 433.553 498.036 433.457C498.064 433.361 498.11 433.271 498.173 433.193C498.236 433.116 498.313 433.051 498.401 433.003C498.489 432.955 498.585 432.925 498.685 432.914C498.784 432.904 498.884 432.913 498.98 432.941C499.076 432.969 499.166 433.016 499.243 433.078L706.688 600.227C706.766 600.289 706.831 600.367 706.879 600.454C706.927 600.542 706.957 600.639 706.968 600.738C706.979 600.838 706.97 600.938 706.942 601.034C706.914 601.13 706.867 601.22 706.804 601.298C706.741 601.375 706.664 601.44 706.576 601.488C706.488 601.536 706.392 601.566 706.292 601.577C706.193 601.587 706.092 601.578 705.996 601.55C705.9 601.522 705.811 601.475 705.733 601.412V601.412Z" fill="#CCCCCC"/>
<path d="M694.271 615.637L486.827 448.489C486.67 448.362 486.57 448.178 486.548 447.977C486.527 447.777 486.586 447.576 486.712 447.419C486.839 447.262 487.023 447.161 487.223 447.14C487.424 447.118 487.625 447.177 487.782 447.303L695.227 614.451C695.304 614.514 695.369 614.592 695.417 614.679C695.465 614.767 695.496 614.863 695.506 614.963C695.517 615.062 695.508 615.163 695.48 615.259C695.452 615.355 695.405 615.444 695.342 615.522C695.28 615.6 695.202 615.665 695.114 615.713C695.027 615.761 694.93 615.791 694.831 615.802C694.731 615.812 694.631 615.803 694.535 615.775C694.439 615.747 694.349 615.7 694.271 615.637V615.637Z" fill="#CCCCCC"/>
<path d="M682.81 629.862L475.365 462.713C475.208 462.587 475.108 462.403 475.086 462.202C475.064 462.001 475.123 461.8 475.25 461.643C475.377 461.486 475.561 461.385 475.761 461.364C475.962 461.342 476.163 461.401 476.32 461.528L683.765 628.676C683.843 628.739 683.907 628.816 683.955 628.904C684.003 628.992 684.033 629.088 684.044 629.187C684.055 629.287 684.046 629.387 684.018 629.483C683.989 629.579 683.943 629.669 683.88 629.746C683.817 629.824 683.74 629.889 683.652 629.937C683.564 629.985 683.468 630.015 683.369 630.026C683.269 630.036 683.169 630.027 683.073 629.999C682.977 629.971 682.888 629.924 682.81 629.862V629.862Z" fill="#CCCCCC"/>
<path d="M671.348 644.086L463.904 476.938C463.826 476.875 463.761 476.798 463.713 476.71C463.665 476.622 463.635 476.526 463.624 476.427C463.614 476.327 463.623 476.227 463.651 476.131C463.679 476.035 463.726 475.946 463.788 475.868C463.851 475.79 463.929 475.725 464.016 475.677C464.104 475.629 464.2 475.599 464.3 475.589C464.399 475.578 464.5 475.587 464.596 475.615C464.691 475.643 464.781 475.69 464.859 475.753L672.303 642.901C672.381 642.964 672.446 643.041 672.494 643.129C672.542 643.217 672.572 643.313 672.583 643.412C672.594 643.512 672.585 643.612 672.557 643.708C672.529 643.804 672.482 643.894 672.419 643.972C672.356 644.05 672.279 644.115 672.191 644.162C672.103 644.21 672.007 644.24 671.907 644.251C671.808 644.262 671.707 644.253 671.611 644.224C671.515 644.196 671.426 644.149 671.348 644.086V644.086Z" fill="#CCCCCC"/>
<path d="M428.081 552.622L416.649 552.621L411.212 508.525L428.085 508.527L428.081 552.622Z" fill="#FFB8B8"/>
<path d="M408.482 549.355H430.53V563.236H394.6C394.6 561.413 394.96 559.608 395.657 557.924C396.355 556.24 397.377 554.71 398.666 553.42C399.955 552.131 401.486 551.109 403.17 550.411C404.854 549.714 406.659 549.355 408.482 549.355V549.355Z" fill="#2F2E41"/>
<path d="M311.286 552.622L299.854 552.621L294.417 508.525L311.29 508.527L311.286 552.622Z" fill="#FFB8B8"/>
<path d="M291.688 549.355H313.736V563.236H277.806C277.806 561.413 278.165 559.608 278.863 557.924C279.56 556.24 280.583 554.71 281.872 553.42C283.161 552.131 284.691 551.109 286.375 550.411C288.06 549.714 289.865 549.355 291.688 549.355V549.355Z" fill="#2F2E41"/>
<path d="M248.125 310.356C249.121 309.414 250.312 308.703 251.614 308.272C252.915 307.841 254.295 307.7 255.656 307.86C257.018 308.02 258.328 308.477 259.494 309.198C260.66 309.919 261.653 310.886 262.405 312.033L283.459 308.05L289 320.255L259.188 325.462C257.178 326.596 254.822 326.954 252.566 326.468C250.31 325.982 248.311 324.685 246.947 322.823C245.583 320.961 244.95 318.663 245.167 316.365C245.384 314.068 246.436 311.929 248.125 310.356V310.356Z" fill="#FFB8B8"/>
<path d="M362.573 265.971L362.848 266.388L328.322 289.133L270.064 307.736C269.291 307.984 268.629 308.492 268.189 309.174C267.75 309.856 267.56 310.668 267.652 311.474L268.923 322.421C268.979 322.905 269.136 323.373 269.384 323.793C269.631 324.213 269.964 324.577 270.36 324.861C270.757 325.146 271.208 325.344 271.685 325.443C272.163 325.543 272.656 325.542 273.133 325.439L327.963 313.687C330.616 313.121 333.125 312.017 335.334 310.441L374.122 282.844C375.528 281.838 376.65 280.486 377.379 278.918C378.107 277.35 378.418 275.62 378.28 273.897C378.138 272.171 377.549 270.512 376.571 269.083C375.593 267.654 374.26 266.504 372.703 265.746C371.146 264.989 369.418 264.65 367.69 264.762C365.962 264.875 364.294 265.435 362.848 266.388L362.573 265.971Z" fill="#B04D8F"/>
<path d="M416.853 540.109C415.976 540.109 415.117 539.853 414.382 539.374C413.648 538.894 413.068 538.211 412.715 537.407L360.306 407.907C360.183 407.626 359.978 407.389 359.717 407.228C359.456 407.068 359.152 406.991 358.846 407.008C358.54 407.025 358.247 407.136 358.006 407.325C357.765 407.514 357.587 407.772 357.497 408.065L314.739 534.138C314.558 534.725 314.26 535.269 313.861 535.736C313.463 536.203 312.973 536.583 312.422 536.854C311.871 537.125 311.271 537.28 310.658 537.31C310.045 537.341 309.432 537.245 308.857 537.03L294.519 531.653C293.74 531.363 293.058 530.864 292.546 530.21C292.035 529.556 291.715 528.773 291.622 527.948C285.171 471.756 341.422 329.918 341.991 328.492L342.148 328.097L393.425 339.44L393.532 339.556C413.99 361.874 430.806 502.638 433.969 530.63C434.087 531.641 433.857 532.662 433.317 533.525C432.776 534.388 431.959 535.041 430.998 535.377L418.341 539.853C417.863 540.022 417.36 540.109 416.853 540.109Z" fill="#2F2E41"/>
<path d="M372.673 344.006C360.249 344.006 346.398 341.529 342.135 331.305L342.037 331.07L342.169 330.852C345.534 325.331 349.982 315.912 347.592 314.144C342.882 310.662 340.597 304.934 340.8 297.118C341.24 280.153 352.8 265.09 369.566 259.636H369.566C374.246 258.138 379.008 256.912 383.829 255.964C387.344 255.254 390.972 255.332 394.453 256.192C397.934 257.052 401.181 258.672 403.962 260.935C406.777 263.214 409.053 266.088 410.626 269.351C412.198 272.613 413.029 276.184 413.058 279.806C413.233 297.937 410.442 323.189 396.145 340.526C395.475 341.331 394.543 341.873 393.512 342.057C386.634 343.302 379.662 343.953 372.673 344.006Z" fill="#C1549C"/>
<path d="M368.051 343.327C368.727 340.901 370.333 338.841 372.52 337.593C374.707 336.345 377.298 336.011 379.73 336.663C380.226 336.801 380.71 336.981 381.177 337.199L397.164 322.65L408.282 330.14L385.42 350.371C384.388 352.232 382.763 353.695 380.803 354.526C378.844 355.357 376.663 355.509 374.607 354.958C373.41 354.63 372.289 354.068 371.31 353.305C370.331 352.541 369.513 351.591 368.903 350.51C368.294 349.428 367.904 348.236 367.758 347.004C367.612 345.771 367.711 344.521 368.051 343.327V343.327Z" fill="#FFB8B8"/>
<path d="M394.632 343.512C393.594 343.512 392.589 343.153 391.786 342.496L385.482 337.345C384.956 336.915 384.535 336.372 384.249 335.757C383.963 335.141 383.82 334.469 383.83 333.791C383.841 333.112 384.004 332.444 384.309 331.838C384.614 331.232 385.052 330.702 385.591 330.289L412.033 310.01C412.346 309.768 412.552 309.413 412.605 309.02C412.658 308.628 412.554 308.231 412.316 307.915L395.996 286.339C394.1 283.84 393.149 280.752 393.311 277.619C393.473 274.487 394.739 271.513 396.883 269.224V269.224C399.142 266.785 402.234 265.284 405.548 265.019C408.861 264.754 412.154 265.745 414.771 267.794L414.874 267.903L431.916 292.305C433.759 293.75 435.243 295.601 436.252 297.714C437.261 299.828 437.768 302.146 437.733 304.487C437.698 306.829 437.122 309.13 436.051 311.212C434.979 313.295 433.441 315.101 431.556 316.491L397.31 342.629C396.535 343.202 395.596 343.512 394.632 343.512Z" fill="#B04D8F"/>
<path d="M349.471 233.533V228.533C349.471 219.98 352.869 211.777 358.917 205.729C364.965 199.681 373.168 196.283 381.721 196.283H381.721C390.274 196.283 398.477 199.681 404.525 205.729C410.573 211.777 413.971 219.98 413.971 228.533V233.533C413.971 239.699 411.521 245.613 407.161 249.973C402.801 254.334 396.887 256.783 390.721 256.783H372.721C369.668 256.783 366.644 256.182 363.823 255.013C361.003 253.845 358.44 252.132 356.281 249.973C354.122 247.814 352.409 245.251 351.241 242.43C350.072 239.61 349.471 236.586 349.471 233.533V233.533Z" fill="#2F2E41"/>
<path d="M381.721 258.504C395.286 258.504 406.282 247.507 406.282 233.942C406.282 220.378 395.286 209.381 381.721 209.381C368.156 209.381 357.16 220.378 357.16 233.942C357.16 247.507 368.156 258.504 381.721 258.504Z" fill="#FFB8B8"/>
<path d="M359.965 227.033V214.847L381.721 205.347L402.465 214.847V227.033C402.465 227.563 402.254 228.072 401.879 228.447C401.504 228.822 400.996 229.033 400.465 229.033H361.965C361.435 229.033 360.926 228.822 360.551 228.447C360.176 228.072 359.965 227.563 359.965 227.033Z" fill="#2F2E41"/>
<path d="M380.722 197.9C377.523 187.661 384.241 175.927 394.173 171.875C404.104 167.822 415.986 170.655 424.367 177.351C432.747 184.046 437.946 194.075 440.701 204.442C443.456 214.808 443.979 225.619 444.488 236.333C456.69 238.574 464.99 253.047 460.763 264.711C456.536 276.375 440.891 282.17 430.086 276.074C419.28 269.977 416.151 253.589 423.949 243.94C427.639 239.374 429.7 233.708 429.806 227.839C429.912 221.969 428.057 216.232 424.535 211.536C421.012 206.84 416.023 203.454 410.359 201.913C404.694 200.372 398.677 200.765 393.261 203.03C387.248 205.545 379.702 199.011 380.722 197.9Z" fill="#2F2E41"/>
<path d="M243.614 263.083C229.005 262.987 214.578 259.827 201.266 253.808C200.474 253.455 199.801 252.879 199.33 252.15C198.859 251.421 198.611 250.571 198.614 249.704V213.286C198.615 212.093 199.09 210.949 199.934 210.105C200.777 209.262 201.921 208.787 203.114 208.786H284.114C285.307 208.787 286.451 209.262 287.295 210.105C288.138 210.949 288.613 212.093 288.614 213.286V249.704C288.618 250.572 288.369 251.421 287.898 252.15C287.427 252.879 286.755 253.455 285.962 253.808C272.65 259.827 258.224 262.987 243.614 263.083V263.083Z" fill="#FFCB3E"/>
<path d="M243.603 233.58C243.003 233.58 242.408 233.461 241.854 233.228L177.622 206.129C176.794 205.779 176.089 205.19 175.599 204.436C175.109 203.682 174.856 202.799 174.872 201.9C174.889 201.002 175.174 200.128 175.692 199.393C176.209 198.658 176.935 198.095 177.776 197.776L242.008 173.408C243.043 173.014 244.187 173.016 245.22 173.415L308.592 197.782C309.427 198.104 310.148 198.667 310.662 199.401C311.176 200.134 311.459 201.004 311.476 201.9C311.492 202.795 311.241 203.675 310.755 204.427C310.269 205.179 309.569 205.768 308.746 206.12L245.373 233.22C244.813 233.458 244.211 233.58 243.603 233.58V233.58Z" fill="#FFCB3E"/>
<path d="M206.114 256.286C209.428 256.286 212.114 253.6 212.114 250.286C212.114 246.972 209.428 244.286 206.114 244.286C202.8 244.286 200.114 246.972 200.114 250.286C200.114 253.6 202.8 256.286 206.114 256.286Z" fill="#3F3D56"/>
<path opacity="0.2" d="M308.965 202.274L245.592 229.373C245.098 229.584 244.566 229.694 244.029 229.695C243.491 229.696 242.959 229.589 242.464 229.381L178.232 202.282C177.426 201.949 176.753 201.358 176.32 200.601C176.036 201.092 175.861 201.637 175.805 202.202C175.749 202.766 175.813 203.335 175.994 203.873C176.175 204.41 176.468 204.903 176.854 205.318C177.24 205.733 177.71 206.062 178.232 206.282L242.464 233.381C242.959 233.589 243.491 233.696 244.029 233.695C244.566 233.694 245.098 233.584 245.592 233.373L308.965 206.274C309.485 206.052 309.952 205.722 310.335 205.307C310.718 204.891 311.009 204.399 311.188 203.863C311.367 203.327 311.43 202.759 311.373 202.197C311.317 201.634 311.142 201.09 310.859 200.601C310.429 201.352 309.763 201.94 308.965 202.274V202.274Z" fill="black"/>
<path d="M206.618 250.262C206.884 250.262 207.138 250.157 207.325 249.97C207.513 249.782 207.618 249.528 207.618 249.262V215.801L240.599 203.786C240.865 203.79 241.121 203.688 241.311 203.504C241.501 203.319 241.61 203.066 241.614 202.801C241.618 202.536 241.517 202.28 241.332 202.089C241.147 201.899 240.894 201.79 240.629 201.786L207.648 213.801C207.383 213.795 207.119 213.843 206.872 213.942C206.626 214.041 206.402 214.188 206.215 214.376C206.025 214.562 205.875 214.784 205.772 215.028C205.67 215.273 205.617 215.536 205.618 215.801V249.262C205.618 249.528 205.724 249.782 205.911 249.97C206.099 250.157 206.353 250.262 206.618 250.262V250.262Z" fill="#3F3D56"/>
<defs>
<linearGradient id="paint0_linear" x1="475" y1="584" x2="475" y2="785.5" gradientUnits="userSpaceOnUse">
<stop stop-color="#DCDCDC"/>
<stop offset="1" stop-color="#DCDCDC" stop-opacity="0"/>
</linearGradient>
<radialGradient id="paint1_radial" cx="0" cy="0" r="1" gradientUnits="userSpaceOnUse" gradientTransform="translate(302.5 758) rotate(-64.8622) scale(529.665 751.066)">
<stop stop-color="#C1549C"/>
<stop offset="1" stop-color="#7E549F"/>
</radialGradient>
<clipPath id="clip0">
<rect width="990" height="811" fill="white" transform="translate(-21)"/>
</clipPath>
</defs>
</svg>
